<?xml version="1.0" encoding="UTF-8"?>
<svg width="95.607mm" height="93.636mm" version="1.1" viewBox="0 0 95.607201 93.636596" xmlns="http://www.w3.org/2000/svg" xmlns:cc="http://creativecommons.org/ns#" xmlns:dc="http://purl.org/dc/elements/1.1/" xmlns:rdf="http://www.w3.org/1999/02/22-rdf-syntax-ns#">
  <metadata>
    <rdf:RDF>
      <cc:Work rdf:about="">
        <dc:format>image/svg+xml</dc:format>
        <dc:type rdf:resource="http://purl.org/dc/dcmitype/StillImage"/>
        <dc:title/>
      </cc:Work>
    </rdf:RDF>
  </metadata>
  <g transform="translate(-.35003 -2.1492)">
    <path transform="matrix(.26458 0 0 .26458 .34967 .16994)" d="m128.07 7.4805c-48 14.562-89.802 49.438-110.68 95.494-27.38 55.842-21.876 125.24 12.609 176.79 43.994 67.041 135.38 100.94 211.15 70.186 65.507-22.481 114.4-85.541 119.39-154.68 4.8448-48.196-12.224-96.914-43.535-133.28-0.0198 0.01176-0.0314 0.01775-0.043 0.02539-0.094 0.22276-0.18643 0.447-0.26562 0.67383-0.0449 0.12865-0.10476 0.22577-0.16992 0.30859-11.321 43.808-23.714 91.295-60.373 121.2-19.465 16.649-42.742 28.915-65.332 40.09 11.946-13.477 10.255-33.23 14.76-49.891 7.9436-46.462 14.908-95.633 0.7754-141.6-4.1148-22.682-29.786-26.604-47.482-16.725-13.073 7.7767-45.139 12.52-35.193 33.84 9.5323 15.088 7.5664 33.309-0.81835 48.398-4.386 7.6509-13.025 26.205 0.0781 10.383 13.481-12.282 21.972-28.26 30.16-44.244 9.0912-24.291 24.125 1.2728 24.391 15.018 2.8677 16.512 7.9864 38.809-7.7715 50.533-32.38 12.536-63.576 28.29-93.559 45.85-10.803-16.202-19.405-35.093-16.887-55.064 2.0075-30.998 15.042-61.009 33.201-85.928 8.4015-13.386 20.929-22.45 35.738-26.645-0.05167-0.23843-0.10017-0.47729-0.14063-0.7168z" stroke-width=".99998"/>
  </g>
</svg>
